<svg xmlns="http://www.w3.org/2000/svg" width="20.624" height="27.515" viewBox="0 0 20.624 27.515"><g transform="translate(-40)"><g transform="translate(40)"><path d="M59.669,5.729h-2.91a6.493,6.493,0,0,0-12.895,0h-2.91A.955.955,0,0,0,40,6.684V26.56a.955.955,0,0,0,.955.955H59.669a.955.955,0,0,0,.955-.955V6.684A.955.955,0,0,0,59.669,5.729ZM50.312,1.91a4.59,4.59,0,0,1,4.519,3.819H45.793A4.59,4.59,0,0,1,50.312,1.91Zm8.4,23.7H41.91V7.638h1.91V10.5a.955.955,0,1,0,1.91,0V7.638h9.166V10.5a.955.955,0,1,0,1.91,0V7.638h1.91Z" transform="translate(-40)" fill="#fff"/></g></g></svg>