<svg xmlns="http://www.w3.org/2000/svg" width="173.468" height="131.5" viewBox="0 0 173.468 131.5"><g transform="translate(0 -0.5)"><path d="M91.936,215.67a39.17,39.17,0,0,1-39.17-39.17H8v67.149H175.872V176.5H131.106A39.17,39.17,0,0,1,91.936,215.67ZM35.979,232.457" transform="translate(-5.202 -114.447)" fill="#57a4ff"/><g transform="translate(0 0.5)"><path d="M173.286,61.057,150.9,2.3A2.8,2.8,0,0,0,148.287.5H25.18a2.8,2.8,0,0,0-2.616,1.8L.181,61.057a2.821,2.821,0,0,0-.163.895c0,.037-.019.064-.019.1V129.2A2.8,2.8,0,0,0,2.8,132H170.67a2.8,2.8,0,0,0,2.8-2.8V62.053c0-.037-.019-.064-.019-.1a2.821,2.821,0,0,0-.163-.895ZM27.108,6.1H146.359l20.25,53.16H125.9a2.8,2.8,0,0,0-2.8,2.8,36.372,36.372,0,0,1-72.745,0,2.8,2.8,0,0,0-2.8-2.8H6.857ZM167.872,126.4H5.6V64.851H44.858a41.967,41.967,0,0,0,83.75,0h39.263Zm0,0" transform="translate(0 -0.5)" fill="#a7d4fb"/><path d="M40.394,307.691H37.6V299.3a2.8,2.8,0,0,0-5.6,0v11.191a2.8,2.8,0,0,0,2.8,2.8h5.6a2.8,2.8,0,0,0,0-5.6Zm0,0" transform="translate(-20.808 -192.979)" fill="#a7d4fb"/><path d="M88.394,328.5H82.8a2.8,2.8,0,0,0,0,5.6h5.6a2.8,2.8,0,0,0,0-5.6Zm0,0" transform="translate(-52.021 -213.787)" fill="#a7d4fb"/></g></g></svg>