<?xml version="1.0" encoding="UTF-8" standalone="no"?><!DOCTYPE svg PUBLIC "-//W3C//DTD SVG 1.1//EN" "http://www.w3.org/Graphics/SVG/1.1/DTD/svg11.dtd"><svg width="100%" height="100%" viewBox="0 0 2059 2059" version="1.1" xmlns="http://www.w3.org/2000/svg" xmlns:xlink="http://www.w3.org/1999/xlink" xml:space="preserve" xmlns:serif="http://www.serif.com/" style="fill-rule:evenodd;clip-rule:evenodd;stroke-linejoin:round;stroke-miterlimit:2;"><g><path d="M2058.53,1028.96c0,569.108 -461.062,1029.65 -1029.26,1029.65c-568.225,0 -1029.26,-460.546 -1029.26,-1029.65c0,-568.438 461.037,-1028.96 1029.26,-1028.96c568.201,0 1029.26,460.525 1029.26,1028.96Z" style="fill:#fcaa0a;"/><path d="M1561.75,1152.36c-2.692,0 -6.062,-0.67 -9.429,-1.345l-218.396,-64.067c-13.492,-4.042 -22.921,-15.492 -24.267,-28.979c-1.346,-13.496 6.059,-26.988 18.204,-33.046c0,0 169.842,-87.675 221.092,-115.317c16.163,-8.754 36.388,-2.021 45.142,14.167c8.779,16.171 2.717,36.421 -13.471,45.175c-28.979,15.5 -95.042,49.912 -147.612,76.875l138.166,40.45c17.529,5.387 28.329,23.596 22.917,41.825c-4.042,14.833 -17.508,24.262 -32.346,24.262Z" style="fill:#532916;"/><path d="M496.1,1152.36c-14.167,0 -27.633,-9.429 -31.696,-24.262c-5.387,-18.229 4.733,-36.438 22.917,-41.825l138.191,-40.45c-52.57,-26.963 -119.312,-61.375 -147.62,-76.875c-16.184,-8.754 -22.242,-29.004 -13.488,-45.175c8.104,-16.188 28.329,-22.921 45.167,-14.167c50.55,27.642 221.087,115.317 221.087,115.317c12.121,6.058 18.88,19.55 17.534,33.046c-1.35,13.487 -10.8,24.937 -23.596,28.979l-218.396,64.067c-3.367,0.675 -6.733,1.345 -10.1,1.345Z" style="fill:#532916;"/><path d="M1695.2,727.55l-4.712,-0.675c-167.846,-25.625 -251.417,-161.167 -254.784,-167.242c-10.104,-15.5 -4.717,-36.395 10.775,-45.837c16.184,-10.1 36.409,-4.713 45.838,10.8c1.346,1.333 72.125,115.292 208.296,136.192c18.179,2.704 31,19.562 27.633,38.441c-2.696,16.188 -16.858,28.321 -33.046,28.321Z" style="fill:#532916;"/><path d="M363.3,727.55c-16.838,0 -31.004,-12.133 -33.696,-28.321c-2.696,-18.879 10.1,-35.737 28.308,-38.441c136.842,-20.9 206.946,-134.859 207.596,-136.192c9.45,-15.513 30.35,-20.9 45.838,-10.8c16.187,9.442 20.9,30.337 11.471,45.837c-3.367,6.075 -87.634,141.617 -254.784,167.242l-4.733,0.675Z" style="fill:#532916;"/><path d="M666.612,1626.4c-12.12,0 -24.937,-4.733 -34.366,-14.163l-90.308,-86.337c-20.226,-18.854 -20.901,-51.229 -2.021,-71.45c19.529,-19.575 51.229,-20.225 71.429,-1.346l55.266,53.267l146.271,-139.584c19.555,-18.9 50.555,-18.9 70.109,0l146.27,139.584l146.271,-139.584c18.854,-18.9 49.875,-18.9 69.434,0l146.241,139.584l55.967,-53.267c20.204,-18.879 51.9,-18.229 70.754,2.017c19.554,19.55 18.879,51.925 -1.346,70.779l-90.308,86.337c-19.55,18.855 -50.55,18.855 -70.104,0l-146.271,-139.583l-146.271,139.583c-19.529,18.855 -49.879,18.855 -69.408,0l-146.271,-139.583l-146.271,139.583c-9.429,9.43 -22.246,14.163 -35.067,14.163Z" style="fill:#532916;"/></g></svg>