<svg xmlns="http://www.w3.org/2000/svg" width="152.663" height="152.67" viewBox="0 0 152.663 152.67"><g transform="translate(-0.01 0)"><path d="M152.673,76.309A76.331,76.331,0,1,1,76.341,0a76.336,76.336,0,0,1,76.331,76.309Z" fill="#fcaa0a" fill-rule="evenodd"/><path d="M1328.208,924.035a3.908,3.908,0,0,1-.7-.1l-16.2-4.751a2.479,2.479,0,0,1-.45-4.6s12.6-6.5,16.4-8.552a2.495,2.495,0,0,1,2.349,4.4c-2.149,1.149-7.048,3.7-10.947,5.7l10.247,3a2.5,2.5,0,0,1,1.7,3.1A2.458,2.458,0,0,1,1328.208,924.035Z" transform="translate(-1212.377 -838.575)" fill="#532916" fill-rule="evenodd"/><path d="M463.042,924.035a2.5,2.5,0,0,1-.651-4.9l10.248-3c-3.9-2-8.848-4.552-10.948-5.7a2.495,2.495,0,0,1,2.349-4.4c3.749,2.05,16.4,8.552,16.4,8.552a2.463,2.463,0,0,1,1.3,2.451,2.533,2.533,0,0,1-1.75,2.149l-16.2,4.751a3.846,3.846,0,0,1-.749.1Z" transform="translate(-426.241 -838.575)" fill="#532916" fill-rule="evenodd"/><path d="M1450.183,524.886l-.349-.05c-12.448-1.9-18.646-11.952-18.9-12.4a2.469,2.469,0,1,1,4.2-2.6c.1.1,5.349,8.55,15.448,10.1a2.431,2.431,0,0,1,2.049,2.851A2.515,2.515,0,0,1,1450.183,524.886Z" transform="translate(-1324.455 -470.93)" fill="#532916" fill-rule="evenodd"/><path d="M331.771,524.886a2.527,2.527,0,0,1-2.5-2.1,2.5,2.5,0,0,1,2.1-2.851c10.148-1.55,15.347-10,15.4-10.1a2.491,2.491,0,0,1,4.25,2.6c-.25.451-6.5,10.5-18.9,12.4Z" transform="translate(-304.819 -470.93)" fill="#532916" fill-rule="evenodd"/><path d="M536.655,1372.917a3.639,3.639,0,0,1-2.549-1.05l-6.7-6.4a3.772,3.772,0,0,1-.15-5.3,3.815,3.815,0,0,1,5.3-.1l4.1,3.95,10.848-10.352a3.74,3.74,0,0,1,5.2,0l10.848,10.352,10.848-10.352a3.679,3.679,0,0,1,5.149,0l10.845,10.352,4.151-3.95a3.708,3.708,0,0,1,5.247.149,3.667,3.667,0,0,1-.1,5.249l-6.7,6.4a3.746,3.746,0,0,1-5.2,0l-10.848-10.352L566.1,1371.866a3.682,3.682,0,0,1-5.147,0L550.1,1361.515l-10.848,10.352A3.669,3.669,0,0,1,536.655,1372.917Z" transform="translate(-487.209 -1252.3)" fill="#532916" fill-rule="evenodd"/></g></svg>